<svg width="43" height="43" viewBox="0 0 43 43" fill="none" xmlns="http://www.w3.org/2000/svg">
<path fill-rule="evenodd" clip-rule="evenodd" d="M21.4227 0.480225C25.5761 0.480225 29.6363 1.71185 33.0897 4.01936C36.5431 6.32687 39.2347 9.60662 40.8242 13.4439C42.4136 17.2811 42.8295 21.5035 42.0192 25.5771C41.2089 29.6507 39.2089 33.3926 36.272 36.3295C33.3351 39.2664 29.5932 41.2664 25.5196 42.0767C21.446 42.887 17.2236 42.4711 13.3864 40.8817C9.54913 39.2922 6.26938 36.6006 3.96187 33.1472C1.65436 29.6938 0.422729 25.6336 0.422729 21.4802C0.422729 15.9107 2.63522 10.5692 6.57349 6.63098C10.5117 2.69272 15.8532 0.480225 21.4227 0.480225Z" fill="#C5C5C5"/>
<path d="M21.4227 42.4802C20.8561 42.4804 20.2995 42.3314 19.8087 42.0482L14.6727 39.0077C13.9062 38.5787 14.2797 38.4272 14.5332 38.3387C15.3485 38.0868 16.129 37.7341 16.8567 37.2887C16.9177 37.2605 16.9848 37.2483 17.0517 37.2533C17.1186 37.2583 17.1832 37.2803 17.2392 37.3172L21.1857 39.6617C21.2592 39.7006 21.3411 39.7209 21.4242 39.7209C21.5074 39.7209 21.5893 39.7006 21.6627 39.6617L37.0527 30.7787C37.1248 30.7355 37.1843 30.6744 37.2256 30.6013C37.2669 30.5282 37.2885 30.4456 37.2882 30.3617V12.5927C37.2883 12.5074 37.2664 12.4235 37.2246 12.3492C37.1828 12.2748 37.1226 12.2125 37.0497 12.1682L21.6597 3.29269C21.5872 3.25182 21.5053 3.23035 21.422 3.23035C21.3387 3.23035 21.2568 3.25182 21.1842 3.29269L5.80324 12.1712C5.72987 12.2146 5.66895 12.2762 5.62638 12.35C5.58381 12.4239 5.56103 12.5075 5.56024 12.5927V30.3542C5.56045 30.438 5.58293 30.5202 5.62536 30.5924C5.6678 30.6646 5.72867 30.7242 5.80174 30.7652L10.0227 33.2012C12.3102 34.3442 13.7112 32.9972 13.7112 31.6442V14.1077C13.7112 14.0486 13.7229 13.9901 13.7455 13.9355C13.7681 13.8809 13.8013 13.8313 13.843 13.7895C13.8848 13.7477 13.9344 13.7146 13.989 13.6919C14.0436 13.6693 14.1021 13.6577 14.1612 13.6577H16.1112C16.2306 13.6577 16.345 13.7051 16.4294 13.7895C16.5138 13.8739 16.5612 13.9883 16.5612 14.1077V31.6457C16.5612 34.6982 14.8992 36.4457 12.0042 36.4457C10.7553 36.4674 9.52596 36.1334 8.45974 35.4827L4.41424 33.1622C3.92312 32.8762 3.51562 32.4664 3.2324 31.9736C2.94919 31.4809 2.80018 30.9225 2.80024 30.3542V12.5927C2.79878 12.0235 2.94716 11.4639 3.23048 10.9702C3.51379 10.4765 3.92205 10.0661 4.41424 9.78019L19.8057 0.894191C20.3015 0.622942 20.8576 0.480774 21.4227 0.480774C21.9879 0.480774 22.5439 0.622942 23.0397 0.894191L38.4297 9.78019C38.9208 10.0656 39.3284 10.4749 39.6119 10.9671C39.8953 11.4593 40.0448 12.0172 40.0452 12.5852V30.3542C40.0444 30.9225 39.8948 31.4807 39.6114 31.9733C39.328 32.4659 38.9206 32.8758 38.4297 33.1622L23.0397 42.0482C22.5481 42.3318 21.9903 42.4809 21.4227 42.4802ZM26.6547 30.0947C31.5312 30.0947 34.3272 28.1747 34.3272 24.8207C34.3272 21.4967 32.0772 20.6102 27.3507 19.9862C22.5717 19.3532 22.0857 19.0277 22.0857 17.9087C22.0857 16.9847 22.4967 15.7517 26.0367 15.7517C29.1987 15.7517 30.3642 16.4327 30.8367 18.5642C30.8595 18.6621 30.9144 18.7496 30.9927 18.8127C31.071 18.8757 31.1682 18.9108 31.2687 18.9122H33.2727C33.3342 18.9113 33.3949 18.8979 33.451 18.8727C33.507 18.8475 33.5574 18.8111 33.5988 18.7657C33.6403 18.7203 33.672 18.6669 33.692 18.6087C33.7121 18.5506 33.72 18.489 33.7152 18.4277C33.4062 14.7557 30.9672 13.0442 26.0352 13.0442C21.6477 13.0442 19.0302 14.8967 19.0302 18.0017C19.0302 21.3707 21.6342 22.3007 25.8462 22.7177C30.8847 23.2112 31.2762 23.9477 31.2762 24.9392C31.2762 26.6597 29.8962 27.3932 26.6532 27.3932C22.5807 27.3932 21.6837 26.3702 21.3837 24.3452C21.3664 24.2403 21.3124 24.1449 21.2314 24.076C21.1504 24.007 21.0476 23.969 20.9412 23.9687H18.9492C18.8299 23.9687 18.7154 24.0161 18.631 24.1005C18.5466 24.1849 18.4992 24.2993 18.4992 24.4187C18.5037 27.0032 19.9152 30.0947 26.6502 30.0947H26.6547Z" fill="white"/>
</svg>
