<svg width="42" height="42" viewBox="0 0 42 42" fill="none" xmlns="http://www.w3.org/2000/svg">
<path d="M20.8275 0.0179998C10.1775 0.0179998 10.851 4.623 10.851 4.623V9.408H20.979V10.908H6.8175C6.8175 10.908 0 10.068 0 20.8755C0 31.683 6.0195 31.2435 6.0195 31.2435H9.495V26.202C9.495 26.202 9.3 20.1825 15.345 20.1825H25.488C25.488 20.1825 31.146 20.2725 31.146 14.7045V5.568C31.146 5.568 32.004 0 20.883 0L20.8275 0.0179998ZM15.2295 3.2235C15.5896 3.21442 15.9442 3.31231 16.2486 3.5048C16.5531 3.69729 16.7936 3.97574 16.9397 4.30492C17.0859 4.6341 17.1312 4.99924 17.0698 5.35415C17.0084 5.70906 16.8432 6.0378 16.595 6.2988C16.3468 6.5598 16.0268 6.74134 15.6754 6.82045C15.324 6.89956 14.9571 6.8727 14.621 6.74325C14.2849 6.61381 13.9947 6.3876 13.7871 6.09323C13.5796 5.79886 13.464 5.44956 13.455 5.0895V5.0595C13.455 4.57654 13.6469 4.11336 13.9884 3.77186C14.3299 3.43035 14.793 3.2385 15.276 3.2385L15.2295 3.2235Z" fill="#C5C5C5"/>
<path d="M21.1276 41.733C31.7776 41.733 31.1041 37.113 31.1041 37.113V32.343H20.9776V30.843H35.1826C35.1826 30.843 42.0001 31.605 42.0001 20.8605C42.0001 10.116 35.9806 10.4925 35.9806 10.4925H32.4601V15.468C32.4601 15.468 32.6551 21.4875 26.6101 21.4875H16.4626C16.4626 21.4875 10.8001 21.402 10.8001 26.97V36.168C10.8001 36.168 9.94206 41.736 21.0631 41.736H21.1231L21.1276 41.733ZM26.7256 38.5125C26.3655 38.5216 26.0108 38.4237 25.7064 38.2312C25.402 38.0387 25.1615 37.7603 25.0153 37.4311C24.8692 37.1019 24.8239 36.7368 24.8853 36.3819C24.9466 36.027 25.1118 35.6982 25.36 35.4372C25.6082 35.1762 25.9283 34.9947 26.2797 34.9156C26.631 34.8365 26.998 34.8633 27.3341 34.9928C27.6702 35.1222 27.9604 35.3484 28.1679 35.6428C28.3755 35.9372 28.491 36.2865 28.5001 36.6465V36.6915C28.5001 37.1745 28.3082 37.6377 27.9667 37.9792C27.6252 38.3207 27.162 38.5125 26.6791 38.5125H26.7256Z" fill="#C5C5C5"/>
</svg>
