<svg width="22" height="24" viewBox="0 0 22 24" fill="none" xmlns="http://www.w3.org/2000/svg">
<path d="M8.16626 19.5588C3.16626 21.0588 3.16626 17.0588 1.16626 16.5588M15.1663 22.5588V18.6888C15.2038 18.212 15.1393 17.7326 14.9773 17.2826C14.8152 16.8326 14.5592 16.4223 14.2263 16.0788C17.3663 15.7288 20.6663 14.5388 20.6663 9.07884C20.666 7.68266 20.129 6.34004 19.1663 5.32884C19.6221 4.10734 19.5899 2.75719 19.0763 1.55884C19.0763 1.55884 17.8963 1.20884 15.1663 3.03884C12.8743 2.41766 10.4583 2.41766 8.16626 3.03884C5.43626 1.20884 4.25626 1.55884 4.25626 1.55884C3.74264 2.75719 3.7104 4.10734 4.16626 5.32884C3.19639 6.34754 2.65878 7.7023 2.66626 9.10884C2.66626 14.5288 5.96626 15.7188 9.10626 16.1088C8.77726 16.4488 8.52352 16.8542 8.36157 17.2988C8.19961 17.7433 8.13307 18.2169 8.16626 18.6888V22.5588" stroke="#C5C5C5" stroke-width="2" stroke-linecap="round" stroke-linejoin="round"/>
</svg>
