<svg width="43" height="30" viewBox="0 0 43 30" fill="none" xmlns="http://www.w3.org/2000/svg">
<path d="M26.7608 20.9478C27.3037 22.0483 28.146 22.9732 29.191 23.6165C30.236 24.2597 31.4413 24.595 32.6683 24.584C35.1496 24.584 36.735 23.3433 36.735 21.6302C36.735 19.5776 35.1058 18.8497 32.3761 17.6546L30.8782 17.0124C26.5578 15.1715 23.6863 12.8652 23.6863 7.99011C23.6863 3.49823 27.109 0.0807691 32.4566 0.0807691C34.1922 -0.0451669 35.9264 0.343314 37.4424 1.19764C38.9584 2.05197 40.1889 3.33423 40.9801 4.88412L36.3167 7.87812C36.0114 7.1101 35.4796 6.45319 34.792 5.99466C34.1043 5.53614 33.2934 5.29772 32.4671 5.31108C32.1069 5.27484 31.7431 5.31406 31.3989 5.42623C31.0547 5.53841 30.7376 5.72109 30.4679 5.96261C30.1982 6.20414 29.9819 6.49921 29.8326 6.82901C29.6833 7.15882 29.6043 7.51611 29.6008 7.87812C29.6008 9.67522 30.7137 10.4014 33.2755 11.5143L34.7734 12.1548C39.8619 14.3368 42.7335 16.5609 42.7335 21.562C42.7335 26.9533 38.4988 29.907 32.81 29.907C30.5941 30.048 28.3848 29.5447 26.4486 28.458C24.5123 27.3713 22.9319 25.7475 21.8979 23.7825L26.7608 20.9478ZM5.60855 21.4727C6.54997 23.1421 7.40565 24.5525 9.45823 24.5525C11.4251 24.5525 12.6675 23.7825 12.6675 20.7903V0.43074H18.6555V20.8743C18.6555 27.074 15.0193 29.8965 9.71371 29.8965C7.8396 29.998 5.97868 29.5297 4.37578 28.5534C2.77287 27.577 1.50308 26.1383 0.733459 24.4265L5.60855 21.4727Z" fill="#C5C5C5"/>
</svg>
