<svg width="25" height="25" viewBox="0 0 25 25" fill="none" xmlns="http://www.w3.org/2000/svg">
<path d="M16.2719 8.12708C17.8631 8.12708 19.3893 8.75922 20.5145 9.88444C21.6397 11.0097 22.2719 12.5358 22.2719 14.1271V21.1271H18.2719V14.1271C18.2719 13.5966 18.0611 13.0879 17.6861 12.7129C17.311 12.3378 16.8023 12.1271 16.2719 12.1271C15.7414 12.1271 15.2327 12.3378 14.8576 12.7129C14.4826 13.0879 14.2719 13.5966 14.2719 14.1271V21.1271H10.2719V14.1271C10.2719 12.5358 10.904 11.0097 12.0292 9.88444C13.1544 8.75922 14.6806 8.12708 16.2719 8.12708Z" stroke="#C5C5C5" stroke-width="2" stroke-linecap="round" stroke-linejoin="round"/>
<path d="M6.27185 9.12708H2.27185V21.1271H6.27185V9.12708Z" stroke="#C5C5C5" stroke-width="2" stroke-linecap="round" stroke-linejoin="round"/>
<path d="M4.27185 6.12708C5.37642 6.12708 6.27185 5.23165 6.27185 4.12708C6.27185 3.02251 5.37642 2.12708 4.27185 2.12708C3.16728 2.12708 2.27185 3.02251 2.27185 4.12708C2.27185 5.23165 3.16728 6.12708 4.27185 6.12708Z" stroke="#C5C5C5" stroke-width="2" stroke-linecap="round" stroke-linejoin="round"/>
</svg>
