<svg width="43" height="42" viewBox="0 0 43 42" fill="none" xmlns="http://www.w3.org/2000/svg">
<path d="M41.8203 17.9455C41.2439 14.0607 39.5942 10.414 37.0568 7.4163C34.5195 4.41862 31.1955 2.1891 27.4592 0.978928C26.0363 0.527091 24.5713 0.220525 23.0867 0.0639237C22.6922 0.0234236 19.9787 -0.0215768 19.6367 0.0114234C19.5467 0.0114234 19.2587 0.0474237 19.0007 0.0684238C16.0097 0.357922 13.1154 1.28439 10.5123 2.78554C7.90926 4.28669 5.65772 6.32774 3.90909 8.77147C1.95303 11.4865 0.681489 14.6337 0.20257 17.9455C0.0412295 18.9551 -0.0235635 19.9777 0.0090692 20.9995C-0.0252828 22.0227 0.0380037 23.0469 0.19807 24.058C0.773377 27.9436 2.42273 31.5912 4.96017 34.5895C7.4976 37.5878 10.8222 39.8177 14.5591 41.0276C16.0019 41.4847 17.4876 41.7928 18.9932 41.9471C20.3332 42.0176 21.6761 42.0176 23.0162 41.9471C25.6548 41.6891 28.2217 40.9386 30.5837 39.7346C30.9437 39.5501 31.0142 39.5006 30.9647 39.4601C30.9152 39.4196 29.3927 37.3706 27.5447 34.8746L24.1862 30.3386L19.9862 24.1105C17.6702 20.6875 15.7651 17.8885 15.7486 17.8885C15.7321 17.8885 15.7156 20.65 15.7081 24.0295C15.8152 26.1293 15.7852 28.2338 15.6181 30.3296C15.546 30.4932 15.4178 30.6256 15.2566 30.7031C15.1246 30.7691 15.0091 30.7811 14.3896 30.7811H13.6801L13.4911 30.6626C13.374 30.589 13.2787 30.4854 13.2151 30.3626L13.1296 30.1781L13.1371 21.9475L13.1506 13.7125L13.2766 13.552C13.3616 13.452 13.4631 13.3673 13.5766 13.3015C13.7446 13.2205 13.8106 13.2115 14.5201 13.2115C15.3586 13.2115 15.4981 13.2445 15.7201 13.483C15.7816 13.549 18.0602 16.9795 20.7857 21.1135C23.5112 25.2475 27.2357 30.8921 29.0717 33.6626L32.3942 38.6996L32.5622 38.5886C34.1634 37.5239 35.6148 36.2496 36.8777 34.7996C39.5236 31.7716 41.2398 28.0445 41.8203 24.0655C41.9808 23.0519 42.0441 22.0252 42.0093 20.9995C42.0434 19.9778 41.9801 18.9552 41.8203 17.9455ZM28.6787 20.728L28.6667 28.1096L27.3647 26.1145L26.0597 24.1195V18.7495C26.0597 15.2815 26.0762 13.3315 26.1002 13.237C26.1295 13.1277 26.1806 13.0256 26.2505 12.9366C26.3203 12.8477 26.4075 12.7738 26.5067 12.7195C26.6747 12.6325 26.7362 12.625 27.3812 12.625C27.9812 12.625 28.0952 12.6325 28.2302 12.7075C28.3284 12.7563 28.4157 12.8244 28.4871 12.9076C28.5585 12.9908 28.6124 13.0875 28.6457 13.192C28.6787 13.303 28.6862 15.5845 28.6787 20.728Z" fill="#C5C5C5"/>
</svg>
