<svg width="42" height="38" viewBox="0 0 42 38" fill="none" xmlns="http://www.w3.org/2000/svg">
<path d="M21 22.3987C23.0711 22.3987 24.75 20.7198 24.75 18.6487C24.75 16.5776 23.0711 14.8987 21 14.8987C18.9289 14.8987 17.25 16.5776 17.25 18.6487C17.25 20.7198 18.9289 22.3987 21 22.3987Z" fill="#C5C5C5"/>
<path d="M21 27.2467C16.4927 27.3557 11.9967 26.7481 7.68 25.4467C5.68593 24.8146 3.8261 23.8188 2.1945 22.5097C1.5719 22.0625 1.05341 21.4859 0.674613 20.8194C0.295819 20.153 0.0656844 19.4124 0 18.6487C0 16.1692 2.724 13.7392 7.287 12.1492C11.7191 10.7403 16.3499 10.0575 21 10.1272C25.5881 10.0631 30.1568 10.7336 34.533 12.1132C36.4534 12.7254 38.2502 13.6731 39.84 14.9122C40.452 15.3385 40.9627 15.8943 41.3359 16.54C41.7092 17.1857 41.9359 17.9056 42 18.6487C42 21.2257 38.955 23.8372 34.05 25.4602C29.8169 26.7192 25.4157 27.3217 21 27.2467ZM21 11.9212C16.5512 11.8617 12.1212 12.5108 7.8765 13.8442C3.6765 15.3097 1.794 17.3137 1.794 18.6442C1.794 20.0362 3.8175 22.2247 8.2605 23.7442C12.3901 24.983 16.6899 25.5596 21 25.4527C25.2246 25.5282 29.4359 24.9566 33.4875 23.7577C38.1 22.2292 40.2 20.0377 40.2 18.6487C40.1243 18.172 39.9506 17.7162 39.6898 17.3101C39.4291 16.904 39.0869 16.5564 38.685 16.2892C37.2626 15.1899 35.6575 14.35 33.9435 13.8082C29.757 12.4938 25.3875 11.8568 21 11.9212Z" fill="#C5C5C5"/>
<path d="M12.48 37.3522C11.7802 37.3683 11.0887 37.1985 10.476 36.8602C8.32796 35.6212 7.58396 32.0482 8.48546 27.3007C9.47943 22.7573 11.2017 18.4047 13.5855 14.4112C15.8216 10.4049 18.6842 6.78207 22.065 3.6802C23.5547 2.32226 25.2733 1.23902 27.141 0.480704C27.8165 0.164113 28.5534 0 29.2995 0C30.0455 0 30.7824 0.164113 31.458 0.480704C33.6915 1.7677 34.431 5.7097 33.3885 10.7692C32.3638 15.066 30.6863 19.1804 28.4145 22.9687C26.2571 26.9277 23.4845 30.519 20.2005 33.6082C18.6566 35.0194 16.865 36.1326 14.916 36.8917C14.1357 37.1813 13.3121 37.337 12.48 37.3522ZM15.1395 15.3022C12.8656 19.1262 11.215 23.2878 10.2495 27.6307C9.41996 32.0032 10.2165 34.6327 11.3745 35.3017C12.5745 35.9962 15.4875 35.3377 19.0245 32.2477C22.1595 29.2881 24.8058 25.8505 26.865 22.0627C29.0414 18.441 30.6505 14.5074 31.6365 10.3987C32.6175 5.6362 31.77 2.7202 30.567 2.0272C30.1161 1.85444 29.6343 1.77711 29.152 1.80009C28.6697 1.82307 28.1974 1.94586 27.765 2.1607C26.1025 2.84672 24.5741 3.82065 23.25 5.0377C20.02 8.00889 17.2855 11.4771 15.15 15.3112L15.1395 15.3022Z" fill="#C5C5C5"/>
<path d="M29.5156 37.3717C27.4831 37.3717 24.9016 36.1417 22.2136 33.8302C18.7736 30.7001 15.8625 27.0343 13.5931 22.9747C11.2392 19.0362 9.53057 14.7465 8.53207 10.2682C8.09903 8.29794 8.01879 6.2665 8.29507 4.26821C8.35894 3.52692 8.58466 2.80867 8.95632 2.16411C9.32797 1.51954 9.83651 0.964361 10.4461 0.537712C12.6766 -0.753788 16.4611 0.573712 20.3236 4.00271C23.5345 7.03599 26.2612 10.5438 28.4086 14.4037C30.761 18.2502 32.4875 22.446 33.5236 26.8342C33.9752 28.8768 34.0449 30.9853 33.7291 33.0532C33.6539 33.8158 33.4147 34.5532 33.0279 35.2147C32.6411 35.8762 32.1158 36.4462 31.4881 36.8857C30.8853 37.2198 30.2045 37.3875 29.5156 37.3717ZM15.1456 22.0717C17.3227 25.9514 20.1035 29.4598 23.3836 32.4652C26.7571 35.3677 29.4331 35.9917 30.5836 35.3152C31.7836 34.6177 32.6686 31.7707 31.7566 27.1642C30.7574 22.9746 29.1014 18.9696 26.8501 15.2977C24.8008 11.6034 22.1982 8.2445 19.1326 5.33771C15.4966 2.10971 12.5476 1.38821 11.3461 2.08421C10.9716 2.38854 10.6643 2.7672 10.4435 3.19629C10.2228 3.62539 10.0934 4.09559 10.0636 4.57721C9.82507 6.35934 9.90277 8.16957 10.2931 9.92471C11.2535 14.2074 12.8922 18.3091 15.1471 22.0747L15.1456 22.0717Z" fill="#C5C5C5"/>
</svg>
