<svg width="25" height="25" viewBox="0 0 25 25" fill="none" xmlns="http://www.w3.org/2000/svg">
<path d="M22.1663 17.8079V20.8079C22.1674 21.0864 22.1104 21.3621 21.9988 21.6173C21.8873 21.8724 21.7236 22.1015 21.5184 22.2898C21.3132 22.4781 21.0709 22.6214 20.8071 22.7106C20.5432 22.7998 20.2637 22.833 19.9863 22.8079C16.9091 22.4736 13.9533 21.4221 11.3563 19.7379C8.94014 18.2026 6.89165 16.1541 5.35632 13.7379C3.66629 11.1291 2.61456 8.15891 2.28631 5.06791C2.26133 4.79138 2.29419 4.51267 2.38282 4.24954C2.47144 3.9864 2.61389 3.7446 2.80108 3.53954C2.98828 3.33447 3.21612 3.17062 3.47011 3.05844C3.72409 2.94625 3.99866 2.88818 4.27632 2.88791H7.27632C7.76162 2.88314 8.23211 3.05499 8.60008 3.37145C8.96805 3.6879 9.20839 4.12736 9.27631 4.60791C9.40294 5.56798 9.63776 6.51064 9.97632 7.41791C10.1109 7.77584 10.14 8.16483 10.0602 8.53879C9.98047 8.91276 9.79518 9.25603 9.52631 9.52791L8.25632 10.7979C9.67987 13.3015 11.7528 15.3744 14.2563 16.7979L15.5263 15.5279C15.7982 15.2591 16.1415 15.0738 16.5154 14.994C16.8894 14.9143 17.2784 14.9434 17.6363 15.0779C18.5436 15.4165 19.4862 15.6513 20.4463 15.7779C20.9321 15.8464 21.3757 16.0911 21.6928 16.4654C22.01 16.8397 22.1785 17.3175 22.1663 17.8079Z" stroke="white" stroke-width="2" stroke-linecap="round" stroke-linejoin="round"/>
</svg>
